<?xml version="1.0" encoding="iso-8859-1"?>
<!-- Generator: Adobe Illustrator 19.0.0, SVG Export Plug-In . SVG Version: 6.00 Build 0)  -->
<svg version="1.1" id="Capa_1" xmlns="http://www.w3.org/2000/svg" xmlns:xlink="http://www.w3.org/1999/xlink" x="0px" y="0px"
	 viewBox="0 0 512.001 512.001" style="enable-background:new 0 0 512.001 512.001;" xml:space="preserve">
<path style="fill:#927266;" d="M478.501,31.761H92.076c-2.584,0-4.903,1.584-5.843,3.991l-20.345,52.08v335.234
	c0,9.293,7.533,16.826,16.826,16.826h405.15c9.293,0,16.826-7.533,16.826-16.826V87.832l-20.345-52.081
	C483.405,33.345,481.085,31.761,478.501,31.761z"/>
<path style="fill:#82635A;" d="M487.863,439.892H82.714c-9.293,0-16.826-7.533-16.826-16.826V87.832h438.801v335.234
	C504.689,432.358,497.156,439.892,487.863,439.892z"/>
<path style="fill:#72544E;" d="M460.498,87.832v302.959c0,15.094-12.236,27.33-27.33,27.33H82.714
	c-9.293,0-16.826-7.533-16.826-16.826v21.771c0,9.293,7.533,16.826,16.826,16.826h405.15c9.293,0,16.826-7.533,16.826-16.826V87.832
	H460.498z"/>
<path id="SVGCleanerId_0" style="fill:#FED9A8;" d="M314.154,247.23c2.716,8.837-2.25,18.12-10.995,20.826l-72.482,22.434
	l4.274,1.743l48.369,19.722l80.062,32.645c9.714,3.961,14.378,15.046,10.417,24.76l0,0c-3.961,9.714-15.046,14.378-24.76,10.417
	l18.567,7.571c9.714,3.961,14.378,15.046,10.417,24.76l0,0c-3.961,9.714-15.046,14.378-24.76,10.417l-18.567-7.571
	c9.6,3.915,14.268,14.788,10.552,24.419c-3.833,9.935-15.431,14.618-25.292,10.597l-15.483-6.313
	c9.714,3.961,14.378,15.046,10.417,24.76l0,0c-3.961,9.714-15.046,14.378-24.76,10.417L149.9,421.657
	c-13.779-5.618-25.896-14.659-35.205-26.268l0,0c-9.309-11.608-21.426-20.65-35.205-26.268l-58.148-23.71l40.642-99.674
	l50.337,20.525c16.85,6.871,182.105-30.347,182.105-30.347C302.922,234.131,311.604,238.933,314.154,247.23z"/>
<g>
	<path id="SVGCleanerId_0_1_" style="fill:#FED9A8;" d="M314.154,247.23c2.716,8.837-2.25,18.12-10.995,20.826l-72.482,22.434
		l4.274,1.743l48.369,19.722l80.062,32.645c9.714,3.961,14.378,15.046,10.417,24.76l0,0c-3.961,9.714-15.046,14.378-24.76,10.417
		l18.567,7.571c9.714,3.961,14.378,15.046,10.417,24.76l0,0c-3.961,9.714-15.046,14.378-24.76,10.417l-18.567-7.571
		c9.6,3.915,14.268,14.788,10.552,24.419c-3.833,9.935-15.431,14.618-25.292,10.597l-15.483-6.313
		c9.714,3.961,14.378,15.046,10.417,24.76l0,0c-3.961,9.714-15.046,14.378-24.76,10.417L149.9,421.657
		c-13.779-5.618-25.896-14.659-35.205-26.268l0,0c-9.309-11.608-21.426-20.65-35.205-26.268l-58.148-23.71l40.642-99.674
		l50.337,20.525c16.85,6.871,182.105-30.347,182.105-30.347C302.922,234.131,311.604,238.933,314.154,247.23z"/>
</g>
<g>
	<path style="fill:#F4C892;" d="M307.908,445.486c-1.326-0.82-2.632-1.5-3.87-2.005L232.962,414.5
		c-3.758,9.216,0.641,19.736,9.841,23.533l56.373,23.268c5.422,2.211,9.691,8.056,11.428,13.509
		c1.798-1.762,3.273-3.912,4.284-6.391l0,0C318.348,459.933,315.227,450.402,307.908,445.486z"/>
	<path style="fill:#F4C892;" d="M345.247,439.374c3.657-9.479-0.807-20.161-10.101-24.228c-0.063-0.027-0.125-0.054-0.188-0.081
		c-0.012-0.005-0.024-0.01-0.036-0.016c-0.043-0.018-0.086-0.036-0.129-0.054c-0.033-0.013-0.065-0.027-0.098-0.041l0.005,0.002
		c-0.002-0.001-0.003-0.001-0.005-0.002l-87.388-35.633l0,0c-3.72,9.123,0.684,19.533,9.822,23.216l77.566,31.263
		c3.557,1.45,7.06,5.025,9.249,8.273C344.443,441.225,344.881,440.324,345.247,439.374z"/>
	<path style="fill:#F4C892;" d="M230.677,290.491L230.677,290.491L230.677,290.491z"/>
	<path style="fill:#F4C892;" d="M371.628,373.291c0.858-1.194,1.591-2.508,2.171-3.93l0,0c3.961-9.714-0.703-20.799-10.417-24.76
		l-80.062-32.646l-48.369-19.722l-4.274-1.743c10.793,18.697,27.502,33.27,47.492,41.421l85.213,34.746
		C367.53,368.796,369.907,371.133,371.628,373.291z"/>
	<path style="fill:#F4C892;" d="M367.605,387.349L261.65,344.146c-3.867,9.484,0.696,20.307,10.187,24.159l95.768,38.865
		c2.763,1.126,5.97,5.252,8.331,8.75c0.822-1.162,1.525-2.435,2.085-3.81C381.983,402.395,377.319,391.31,367.605,387.349z"/>
</g>
<path style="fill:#2D5872;" d="M55.864,231.076c1.51-3.704,5.737-5.482,9.441-3.972l39.269,16.012
	c3.704,1.51,5.482,5.737,3.972,9.441L60.53,370.318c-1.51,3.704-5.737,5.482-9.441,3.972L11.82,358.278
	c-3.704-1.51-5.482-5.737-3.972-9.442L55.864,231.076"/>
<path style="fill:#1D4859;" d="M104.575,243.116l-16.941-6.908L42.821,346.11c-1.51,3.704-5.737,5.482-9.442,3.972l-22.328-9.104
	l-3.204,7.858c-1.51,3.704,0.268,7.931,3.972,9.442l39.269,16.012c3.704,1.51,7.931-0.268,9.442-3.972l48.017-117.761
	C110.057,248.853,108.279,244.626,104.575,243.116z"/>
<path style="fill:#FFB125;" d="M322.122,31.761h-73.667l-12.974,56.071v118.439c0,3.234,3.818,4.952,6.239,2.808l41.081-36.394
	c1.42-1.258,3.555-1.258,4.975,0l41.081,36.394c2.421,2.145,6.239,0.426,6.239-2.808V87.832L322.122,31.761z"/>
<path style="fill:#FF901D;" d="M328.858,209.079l-41.081-36.394c-1.42-1.258-3.555-1.258-4.975,0l-41.081,36.394
	c-2.421,2.144-6.239,0.426-6.239-2.808V87.832h99.616v118.439C335.096,209.505,331.278,211.223,328.858,209.079z"/>
<polygon style="fill:#FED9A8;" points="299.698,455.367 299.697,455.366 299.697,455.367 "/>
<path d="M387.851,24.45H92.076c-5.636,0-10.602,3.392-12.653,8.642l-20.345,52.08c-0.015,0.039-0.023,0.079-0.038,0.117
	c-0.076,0.203-0.142,0.41-0.2,0.622c-0.021,0.077-0.041,0.153-0.059,0.23c-0.046,0.195-0.083,0.393-0.113,0.593
	c-0.012,0.08-0.027,0.16-0.037,0.24c-0.025,0.218-0.039,0.438-0.045,0.661c-0.001,0.056-0.008,0.112-0.009,0.169
	c0,0.009-0.001,0.018-0.001,0.027v107.41c0,4.038,3.273,7.311,7.311,7.311s7.311-3.273,7.311-7.311V95.143H228.17v111.128
	c0,4.346,2.56,8.306,6.523,10.089c1.451,0.653,2.996,0.972,4.531,0.972c2.656,0,5.283-0.954,7.343-2.78l38.721-34.304l38.721,34.303
	c3.251,2.883,7.913,3.592,11.876,1.809c3.962-1.784,6.522-5.743,6.522-10.089V95.143h154.971v327.923
	c0,5.246-4.269,9.515-9.515,9.515H353.81c0-0.083-0.01-0.166-0.011-0.249c-0.008-0.656-0.032-1.311-0.088-1.961
	c12.587,3.337,26.036-3.132,31.08-15.502c2.653-6.507,2.614-13.657-0.111-20.133c-0.257-0.61-0.54-1.202-0.838-1.785
	c-0.055-0.107-0.108-0.215-0.163-0.321c-0.293-0.556-0.605-1.099-0.934-1.628c-0.064-0.103-0.13-0.203-0.195-0.305
	c-0.348-0.543-0.709-1.076-1.094-1.589c-0.007-0.01-0.015-0.019-0.022-0.028c-0.382-0.507-0.786-0.995-1.203-1.472
	c-0.076-0.087-0.151-0.175-0.228-0.262c-0.413-0.46-0.842-0.905-1.286-1.334c-0.087-0.084-0.175-0.165-0.263-0.247
	c-0.465-0.437-0.941-0.862-1.437-1.263c-0.017-0.013-0.034-0.026-0.051-0.039c-0.488-0.393-0.995-0.765-1.512-1.123
	c-0.093-0.065-0.185-0.131-0.28-0.195c-0.517-0.348-1.047-0.677-1.591-0.99c-0.045-0.026-0.086-0.056-0.132-0.082
	c3.09-2.674,5.529-6.058,7.117-9.952c2.653-6.507,2.614-13.657-0.111-20.134c-2.384-5.667-6.575-10.225-11.943-13.053
	c-0.767-0.404-1.558-0.773-2.371-1.104l-113.787-46.397l52.966-16.394c12.601-3.901,19.698-17.341,15.82-29.958
	c-1.447-4.71-4.316-8.682-8.022-11.585c-5.515-4.321-12.886-6.272-20.196-4.737c-0.035,0.008-0.069,0.014-0.104,0.023
	c-0.405,0.091-41.009,9.221-83.416,17.49c-1.881,0.367-3.714,0.721-5.521,1.069c-1.446,0.278-2.872,0.552-4.271,0.818
	c-0.402,0.077-0.805,0.153-1.204,0.229c-2.47,0.469-4.863,0.918-7.189,1.35c-0.936,0.174-1.864,0.346-2.777,0.514
	c-53.257,9.811-68.218,9.987-72.37,9.425c-0.016-0.002-0.03-0.004-0.046-0.007c-0.063-0.009-0.125-0.018-0.183-0.027
	c-0.042-0.007-0.081-0.014-0.12-0.02c-0.028-0.005-0.058-0.01-0.085-0.014c-0.259-0.047-0.461-0.096-0.617-0.143l-1.198-0.488
	l1.493-3.661c1.468-3.6,1.446-7.556-0.061-11.139c-0.377-0.896-0.836-1.742-1.368-2.53c-1.596-2.363-3.853-4.203-6.553-5.304
	l-39.268-16.011c-3.599-1.469-7.556-1.446-11.139,0.061c-3.584,1.507-6.365,4.32-7.833,7.919L1.077,346.076
	c-3.03,7.431,0.551,15.941,7.982,18.972l39.269,16.012c1.793,0.731,3.648,1.077,5.475,1.077c5.743,0,11.197-3.422,13.496-9.059
	l0.361-0.885l9.054,3.691c0.005,0.002,0.01,0.005,0.016,0.007c8.66,3.531,16.639,8.569,23.545,14.821
	c1.256,1.137,2.476,2.314,3.659,3.529s2.327,2.469,3.432,3.759c0.552,0.645,1.095,1.3,1.626,1.963
	c10.063,12.548,23.255,22.391,38.148,28.464l10.186,4.153H82.714c-5.246,0-9.515-4.269-9.515-9.515v-18.499
	c0-4.038-3.273-7.311-7.311-7.311c-4.038,0-7.311,3.273-7.311,7.311v18.499c0,13.309,10.827,24.137,24.137,24.137h110.473
	l94.181,38.402c3.242,1.322,6.596,1.949,9.899,1.948c10.379,0,20.237-6.185,24.392-16.374c1.704-4.179,2.251-8.547,1.792-12.746
	c4.899,0.703,9.978,0.058,14.582-1.93c4.679-2.021,8.557-5.24,11.311-9.301h138.52c13.309,0,24.137-10.827,24.137-24.137V87.832
	c0-0.009-0.001-0.018-0.001-0.027c0-0.056-0.007-0.112-0.009-0.169c-0.006-0.223-0.019-0.443-0.045-0.661
	c-0.01-0.08-0.025-0.16-0.037-0.24c-0.03-0.201-0.067-0.399-0.113-0.593c-0.018-0.077-0.038-0.153-0.059-0.23
	c-0.058-0.211-0.124-0.418-0.2-0.622c-0.014-0.039-0.023-0.079-0.038-0.117l-20.345-52.082c-2.051-5.248-7.018-8.64-12.653-8.64
	h-37.044c-4.038,0-7.311,3.273-7.311,7.311s3.273,7.311,7.311,7.311h36.336l16.191,41.449H340.909l-9.591-41.449h56.533
	c4.038,0,7.311-3.273,7.311-7.311S391.889,24.45,387.851,24.45 M254.268,39.072h62.042l9.591,41.449h-81.224L254.268,39.072z
	 M229.668,80.521H76.593l16.191-41.449h146.475L229.668,80.521z M327.786,198.362l-35.162-31.15
	c-2.091-1.852-4.713-2.778-7.334-2.778c-2.622,0-5.245,0.926-7.336,2.778l-35.161,31.15V95.143h84.994v103.219H327.786z
	 M53.785,367.494l-39.143-15.96l47.966-117.635l39.142,15.961L53.785,367.494z M345.867,411.616l-8.391-3.422
	c-0.004-0.002-0.008-0.003-0.012-0.005c-0.003-0.001-0.006-0.003-0.009-0.004c-0.001,0-0.002-0.001-0.003-0.001l-87.386-35.631
	c-3.738-1.524-8.005,0.27-9.53,4.01c-1.525,3.739,0.27,8.006,4.01,9.531l87.388,35.632l0,0c0.365,0.149,0.718,0.314,1.059,0.495
	c0.096,0.051,0.185,0.113,0.279,0.166c0.24,0.136,0.481,0.272,0.708,0.423c0.109,0.073,0.209,0.157,0.315,0.233
	c0.201,0.144,0.406,0.286,0.596,0.442c0.115,0.094,0.219,0.199,0.33,0.297c0.17,0.151,0.344,0.297,0.504,0.457
	c0.111,0.11,0.21,0.231,0.316,0.345c0.147,0.158,0.298,0.313,0.436,0.479c0.105,0.127,0.197,0.262,0.297,0.393
	c0.125,0.164,0.255,0.325,0.37,0.495c0.097,0.142,0.18,0.292,0.27,0.437c0.104,0.168,0.214,0.333,0.309,0.506
	c0.086,0.156,0.158,0.319,0.237,0.478c0.084,0.171,0.175,0.339,0.251,0.514c0.073,0.168,0.132,0.342,0.197,0.513
	c0.066,0.173,0.138,0.343,0.196,0.519c0.058,0.177,0.102,0.358,0.151,0.537c0.049,0.177,0.104,0.351,0.145,0.53
	c0.041,0.181,0.067,0.365,0.1,0.547c0.033,0.182,0.071,0.362,0.095,0.546s0.033,0.37,0.048,0.555
	c0.015,0.186,0.037,0.371,0.043,0.557c0.006,0.183-0.003,0.368-0.005,0.552c-0.002,0.19,0.001,0.38-0.011,0.571
	c-0.011,0.181-0.038,0.362-0.058,0.543c-0.021,0.195-0.037,0.39-0.069,0.584c-0.029,0.178-0.074,0.355-0.111,0.533
	c-0.042,0.197-0.077,0.394-0.13,0.59c-0.046,0.173-0.108,0.345-0.163,0.517c-0.062,0.196-0.119,0.392-0.192,0.585
	c-0.062,0.133-0.123,0.267-0.18,0.402c-0.013,0.031-0.02,0.063-0.032,0.093c-1.143,2.633-3.252,4.728-6.004,5.917
	c-3.03,1.307-6.499,1.353-9.519,0.121l-15.483-6.313c-0.072-0.029-0.145-0.049-0.217-0.076c-0.073-0.033-0.142-0.071-0.216-0.101
	l-71.076-28.981c-3.741-1.524-8.006,0.27-9.53,4.01c-1.525,3.739,0.27,8.006,4.009,9.531l71.076,28.981
	c0.076,0.031,0.153,0.053,0.23,0.081c0.069,0.03,0.133,0.067,0.204,0.095c5.965,2.433,8.84,9.265,6.408,15.23
	c-2.433,5.967-9.262,8.843-15.23,6.408l-95.495-38.938c-0.004-0.002-0.008-0.004-0.012-0.006l-44.72-18.235
	c-7.872-3.21-15.182-7.665-21.635-13.146c-3.872-3.289-7.435-6.946-10.627-10.926c-3.145-3.921-6.595-7.578-10.307-10.939
	c-8.167-7.393-17.602-13.35-27.841-17.526c-0.001,0-0.002-0.001-0.003-0.001l-9.066-3.696l18.057-44.285l17.064-41.849l1.259,0.513
	c1.185,0.483,2.875,1.169,7.423,1.341c5.682,0.257,15.082-0.336,31.922-2.715c11.455-1.618,25.506-3.958,41.909-6.976
	c0.404-0.074,0.805-0.148,1.213-0.223c0.767-0.142,1.542-0.286,2.32-0.43c0.605-0.112,1.213-0.226,1.826-0.341
	c0.698-0.131,1.399-0.262,2.105-0.395c0.749-0.141,1.507-0.284,2.269-0.429c0.61-0.116,1.219-0.231,1.835-0.348
	c0.929-0.177,1.874-0.358,2.822-0.54c0.488-0.094,0.971-0.186,1.463-0.28c1.452-0.28,2.923-0.564,4.421-0.855
	c42.261-8.22,83.051-17.369,84.884-17.781c0.183-0.038,0.366-0.06,0.549-0.087c4.696-0.695,9.297,2.021,10.644,6.403
	c0.473,1.54,0.528,3.111,0.23,4.589c-0.655,3.253-3.019,6.06-6.398,7.105l-72.482,22.434c-2.951,0.914-5.009,3.581-5.142,6.667
	c-0.134,3.085,1.684,5.922,4.544,7.088l132.704,54.111c2.89,1.178,5.148,3.411,6.358,6.288c1.21,2.877,1.228,6.053,0.049,8.942
	c-1.179,2.89-3.411,5.148-6.288,6.358c-1.438,0.604-2.951,0.91-4.466,0.919c-0.022,0-0.044-0.003-0.066-0.003
	c-0.356,0-0.711-0.014-1.066-0.047c-0.105-0.01-0.209-0.032-0.314-0.044c-0.271-0.033-0.542-0.064-0.811-0.116
	c-0.17-0.033-0.338-0.083-0.507-0.123c-0.202-0.048-0.405-0.089-0.605-0.148c-0.207-0.061-0.41-0.142-0.614-0.215
	c-0.162-0.058-0.327-0.106-0.487-0.171l-87.396-35.636c-3.739-1.525-8.005,0.27-9.53,4.01c-1.525,3.739,0.27,8.006,4.01,9.531
	l105.955,43.203c0.723,0.294,1.406,0.655,2.043,1.075c1.911,1.26,3.408,3.055,4.315,5.213c1.059,2.517,1.205,5.263,0.435,7.846
	c-0.11,0.369-0.239,0.735-0.386,1.096c-0.152,0.373-0.321,0.734-0.506,1.082c-0.431,0.81-0.956,1.542-1.542,2.209
	c-0.364,0.414-0.753,0.8-1.167,1.154c-0.066,0.056-0.126,0.12-0.193,0.174c-2.668,2.182-6.235,3.12-9.72,2.416
	c-0.707-0.143-1.41-0.346-2.102-0.628L345.867,411.616z"/>
<g>
</g>
<g>
</g>
<g>
</g>
<g>
</g>
<g>
</g>
<g>
</g>
<g>
</g>
<g>
</g>
<g>
</g>
<g>
</g>
<g>
</g>
<g>
</g>
<g>
</g>
<g>
</g>
<g>
</g>
</svg>
